<?xml version="1.0" encoding="utf-8"?>
<!-- Generator: Adobe Illustrator 16.0.0, SVG Export Plug-In . SVG Version: 6.00 Build 0)  -->
<!DOCTYPE svg PUBLIC "-//W3C//DTD SVG 1.1//EN" "http://www.w3.org/Graphics/SVG/1.1/DTD/svg11.dtd" [
	<!ENTITY ns_extend "http://ns.adobe.com/Extensibility/1.0/">
	<!ENTITY ns_ai "http://ns.adobe.com/AdobeIllustrator/10.0/">
	<!ENTITY ns_graphs "http://ns.adobe.com/Graphs/1.0/">
	<!ENTITY ns_vars "http://ns.adobe.com/Variables/1.0/">
	<!ENTITY ns_imrep "http://ns.adobe.com/ImageReplacement/1.0/">
	<!ENTITY ns_sfw "http://ns.adobe.com/SaveForWeb/1.0/">
	<!ENTITY ns_custom "http://ns.adobe.com/GenericCustomNamespace/1.0/">
	<!ENTITY ns_adobe_xpath "http://ns.adobe.com/XPath/1.0/">
]>
<svg version="1.1" id="Calque_1" xmlns:x="&ns_extend;" xmlns:i="&ns_ai;" xmlns:graph="&ns_graphs;"
	 xmlns="http://www.w3.org/2000/svg" xmlns:xlink="http://www.w3.org/1999/xlink" x="0px" y="0px" width="255px" height="67.338px"
	 viewBox="0 0 255 67.338" enable-background="new 0 0 255 67.338" xml:space="preserve">
<metadata>
	<sfw  xmlns="&ns_sfw;">
		<slices></slices>
		<sliceSourceBounds  width="255" height="67.338" y="-580.744" x="935.275" bottomLeftOrigin="true"></sliceSourceBounds>
	</sfw>
</metadata>
<g>
	<path fill="#F2C94C" d="M245.505,67.338H9.495C4.251,67.338,0,63.087,0,57.843V9.494C0,4.251,4.251,0,9.495,0h236.01
		C250.749,0,255,4.251,255,9.494v48.349C255,63.087,250.749,67.338,245.505,67.338"/>
	<path fill="#FFFFFF" d="M39.937,23.547l-2.976,14.021c-0.969,4.462-3.731,6.738-8.224,6.738c-4.674,0-7.495-2.155-7.495-5.735
		c0-0.851,0.12-1.912,0.393-3.369h6.193c-0.274,1.153-0.396,1.882-0.396,2.549c0,0.82,0.575,1.396,1.396,1.396
		c1.153,0,1.608-0.668,2.094-3.005l2.703-12.595H39.937z"/>
	<polygon fill="#FFFFFF" points="48.375,31.134 57.57,31.134 56.568,35.808 47.373,35.808 46.797,38.509 57.966,38.509 
		56.843,43.79 39.482,43.79 43.792,23.547 60.697,23.547 59.574,28.797 48.859,28.797 	"/>
	<path fill="#FFFFFF" d="M91.563,43.79h-6.222l1.76-8.285c0.518-2.246,0.547-2.367,1.062-4.219h-0.211
		c-0.244,0.759-0.274,0.759-0.608,1.79c-0.394,1.153-0.607,1.761-0.88,2.368l-3.551,8.346h-4.766l-0.395-8.377v-1.001
		c0-1.002,0-1.214,0.062-2.246l0.03-0.88h-0.213c-0.121,0.789-0.121,0.789-0.273,1.912c-0.15,1.031-0.242,1.488-0.363,2.124
		l-1.822,8.468h-6.131l4.311-20.243h8.104l0.455,9.469c0.09,1.366,0.09,1.366,0.09,1.761c0,0.304,0,0.425-0.029,1.214h0.183
		c0.455-1.638,0.515-1.791,1.093-3.065l3.945-9.378h8.68L91.563,43.79z"/>
	<path fill="#FFFFFF" d="M103.947,23.547l-1.093,5.129c-0.577,2.792-2.125,4.128-4.704,4.128c-0.092,0-0.334,0-0.607-0.03
		l0.395-1.791c1.518-0.273,2.246-1.124,2.58-2.975h-1.973l0.971-4.461H103.947z"/>
	<path fill="#FFFFFF" d="M107.74,40.907l-1.607,2.883h-6.068l11.35-20.242h5.979l4.129,20.242h-6.192l-0.607-2.883H107.74z
		 M113.296,31.862c-0.03-0.271-0.062-0.759-0.062-1.244V29.98h-0.211c-0.365,1.427-0.396,1.548-0.578,1.882l-2.519,4.734h4.158
		L113.296,31.862z"/>
	<path fill="#FFFFFF" d="M127.561,23.547h9.591c2.488,0,3.643,0.243,4.674,0.94c1.214,0.851,2.003,2.459,2.003,4.067
		c0,2.276-1.243,3.976-3.49,4.855c1.608,0.729,2.428,2.034,2.428,3.945c0,2.307-1.244,4.311-3.338,5.372
		c-1.457,0.729-3.217,1.062-5.433,1.062h-10.743L127.561,23.547z M133.782,38.782c2.033,0,3.187-0.729,3.187-1.973
		c0-0.607-0.395-1.123-1.031-1.396c-0.425-0.182-0.698-0.212-1.67-0.212h-3.307l-0.76,3.581H133.782z M134.814,31.316
		c2.063,0,3.156-0.607,3.156-1.761c0-0.94-0.729-1.396-2.155-1.396h-3.368l-0.668,3.156H134.814z"/>
	<path fill="#FFFFFF" d="M163.282,24.821c2.216,1.608,3.339,4.158,3.339,7.466c0,6.799-4.947,12.019-11.411,12.019
		c-2.489,0-4.826-0.759-6.525-2.124c-1.973-1.578-3.035-4.037-3.035-7.041c0-3.369,1.335-6.647,3.611-8.862
		c2.276-2.186,4.947-3.247,8.164-3.247C159.641,23.031,161.704,23.668,163.282,24.821 M153.965,29.556
		c-1.274,1.578-2.063,3.764-2.063,5.857c0,2.216,1.366,3.764,3.277,3.764c2.793,0,5.251-3.521,5.251-7.526
		c0-2.246-1.275-3.764-3.187-3.764C155.999,27.887,154.876,28.464,153.965,29.556"/>
	<path fill="#FFFFFF" d="M185.986,43.79h-6.222l-3.187-9.408c-0.334-1.123-0.425-1.73-0.486-3.399h-0.212
		c-0.091,2.458-0.122,2.701-0.243,3.43l-2.004,9.378h-6.25l4.309-20.243h5.979l3.157,9.591c0.333,1.122,0.576,2.458,0.697,3.763
		h0.213c0.03-1.79,0.151-3.096,0.334-3.885l2.003-9.469h6.222L185.986,43.79z"/>
	<path fill="#FFFFFF" d="M208.567,43.79h-6.222l-3.187-9.408c-0.334-1.123-0.425-1.73-0.487-3.399h-0.211
		c-0.091,2.458-0.123,2.701-0.243,3.43l-2.003,9.378h-6.252l4.31-20.243h5.979l3.157,9.591c0.333,1.122,0.576,2.458,0.697,3.763
		h0.213c0.03-1.79,0.151-3.096,0.334-3.885l2.003-9.469h6.222L208.567,43.79z"/>
	<polygon fill="#FFFFFF" points="221.437,31.134 230.632,31.134 229.631,35.808 220.435,35.808 219.858,38.509 231.027,38.509 
		229.904,43.79 212.544,43.79 216.854,23.547 233.759,23.547 232.636,28.797 221.922,28.797 	"/>
</g>
</svg>
