<?xml version="1.0" encoding="utf-8"?>
<!-- Generator: Adobe Illustrator 16.0.0, SVG Export Plug-In . SVG Version: 6.00 Build 0)  -->
<!DOCTYPE svg PUBLIC "-//W3C//DTD SVG 1.1//EN" "http://www.w3.org/Graphics/SVG/1.1/DTD/svg11.dtd" [
	<!ENTITY ns_extend "http://ns.adobe.com/Extensibility/1.0/">
	<!ENTITY ns_ai "http://ns.adobe.com/AdobeIllustrator/10.0/">
	<!ENTITY ns_graphs "http://ns.adobe.com/Graphs/1.0/">
	<!ENTITY ns_vars "http://ns.adobe.com/Variables/1.0/">
	<!ENTITY ns_imrep "http://ns.adobe.com/ImageReplacement/1.0/">
	<!ENTITY ns_sfw "http://ns.adobe.com/SaveForWeb/1.0/">
	<!ENTITY ns_custom "http://ns.adobe.com/GenericCustomNamespace/1.0/">
	<!ENTITY ns_adobe_xpath "http://ns.adobe.com/XPath/1.0/">
]>
<svg version="1.1" id="Calque_1" xmlns:x="&ns_extend;" xmlns:i="&ns_ai;" xmlns:graph="&ns_graphs;"
	 xmlns="http://www.w3.org/2000/svg" xmlns:xlink="http://www.w3.org/1999/xlink" x="0px" y="0px" width="213.859px"
	 height="66.995px" viewBox="0 0 213.859 66.995" enable-background="new 0 0 213.859 66.995" xml:space="preserve">
<metadata>
	<sfw  xmlns="&ns_sfw;">
		<slices></slices>
		<sliceSourceBounds  width="213.859" height="66.995" y="-330.342" x="313.571" bottomLeftOrigin="true"></sliceSourceBounds>
	</sfw>
</metadata>
<rect x="1.013" y="1.013" fill="#E21421" width="211.833" height="64.968"/>
<path fill="#FFFFFF" d="M211.832,64.968H2.027V2.026h209.805V64.968z M213.859,0h-2.027H2.027H0v2.026v62.942v2.026h2.027h209.805
	h2.027v-2.026V2.026V0z"/>
<path fill="#FFFFFF" d="M28.499,51.102H10.921v-1.258l0.678-0.098c1.044-0.145,1.46-0.582,1.46-2.131V18.757
	c0-1.55-0.416-1.986-1.46-2.131l-0.678-0.097V15.27h10.849v1.259l-0.678,0.097c-1.2,0.193-1.983,0.581-1.983,2.131v30.021
	c0,0.678,0.157,1.066,0.888,1.066c2.973,0,6.52-4.407,7.459-9.686l1.304,0.049L28.499,51.102z"/>
<path fill="#FFFFFF" d="M42.402,51.102v-1.258l0.522-0.146c1.148-0.339,1.565-1.064,1.2-2.565l-1.565-6.149h-7.146l-1.357,5.908
	c-0.312,1.355-0.156,2.662,1.566,2.855l0.782,0.098v1.258h-7.25v-1.258l0.73-0.194c1.2-0.339,1.982-1.259,2.347-2.759l7.354-31.621
	h2.4l8.241,32.588c0.261,1.114,0.782,1.695,1.774,1.889l0.469,0.098v1.258H42.402z M38.855,26.311l-3.024,12.928h6.31L38.855,26.311
	z"/>
<path fill="#FFFFFF" d="M75.152,46.405c-2.086,3.052-5.007,4.697-9.754,4.697h-9.232v-1.259l0.678-0.097
	c1.043-0.146,1.722-0.581,1.722-2.131V18.757c0-1.55-0.679-1.986-1.722-2.131l-0.678-0.097v-1.259h9.181
	c4.067,0,6.519,1.404,8.605,3.535c3.391,3.438,4.59,9.103,4.59,15.349C78.542,38.417,77.551,42.919,75.152,46.405 M66.337,16.529
	c-0.939,0-1.721,0.533-1.721,1.453v30.213c0,1.261,0.574,1.696,2.086,1.696c1.252,0,2.503-0.387,3.494-1.356
	c1.67-1.646,2.087-5.713,2.087-14.381C72.283,20.162,71.136,16.529,66.337,16.529"/>
<path fill="#FFFFFF" d="M97.708,51.102H77.888v-1.258l0.678-0.098c1.043-0.145,1.461-0.582,1.461-2.131V18.757
	c0-1.55-0.418-1.986-1.461-2.13l-0.678-0.098v-1.258h19.821l0.261,9.926l-1.409,0.048c-1.46-4.987-3.129-8.716-8.554-8.716
	c-1.095,0-1.93,0.484-1.93,2.034v13.462h0.522c1.721,0,3.808-1.695,4.329-4.116l0.469-2.179h1.514v14.671h-1.514l-0.677-2.809
	c-0.626-2.662-2.295-4.31-4.121-4.31h-0.522v14.624c0,1.356,0.94,1.938,2.295,1.938c3.86,0,6.364-2.905,7.564-6.489l0.938-2.808
	l1.461,0.096L97.708,51.102z M88.999,12.026l-4.33,1.985l-0.574-0.774l4.904-4.455l2.365,2.149"/>
<path fill="#FFFFFF" d="M115.307,32.847c-1.773,0.92-3.912,1.356-6.885,1.356h-1.096v13.412c0,1.55,0.73,1.938,1.931,2.131
	l0.678,0.097v1.259H99.138v-1.259l0.678-0.097c1.043-0.146,1.46-0.581,1.46-2.131V18.757c0-1.55-0.417-1.986-1.46-2.131
	l-0.678-0.097V15.27h10.693c6.364,0,10.38,3.729,10.38,9.345C120.21,28.538,118.437,31.25,115.307,32.847 M112.334,17.739
	c-0.729-0.92-2.034-1.21-3.391-1.21c-0.679,0-1.617,0.145-1.617,0.823v15.592h1.096c2.347,0,3.286-0.726,4.12-1.744
	c1.305-1.597,1.356-4.357,1.356-6.585C113.899,21.759,113.585,19.192,112.334,17.739"/>
<path fill="#FFFFFF" d="M139.272,51.102h-19.821v-1.258l0.679-0.099c1.043-0.144,1.461-0.581,1.461-2.13V18.757
	c0-1.55-0.418-1.986-1.461-2.13l-0.679-0.097v-1.259h19.821l0.262,9.926l-1.409,0.048c-1.461-4.987-3.13-8.715-8.554-8.715
	c-1.096,0-1.931,0.483-1.931,2.033v13.462h0.521c1.723,0,3.808-1.695,4.33-4.116l0.47-2.179h1.513v14.671h-1.513l-0.679-2.809
	c-0.626-2.663-2.295-4.31-4.121-4.31h-0.521v14.624c0,1.355,0.938,1.938,2.295,1.938c3.86,0,6.364-2.905,7.564-6.489l0.938-2.808
	l1.46,0.096L139.272,51.102z M134.89,14.011l-4.328-1.985l-4.33,1.985l-0.573-0.774l4.903-4.455l4.902,4.455L134.89,14.011z"/>
<path fill="#FFFFFF" d="M154.702,50.667c-1.146,0.631-2.243,0.873-3.494,0.873c-2.398,0-4.956-1.26-6.677-3.293
	c-2.189-2.615-4.276-7.506-4.276-15.061c0-10.265,3.756-15.543,6.885-17.383c1.304-0.775,2.503-1.017,3.495-1.017
	c0.99,0,2.034,0.097,3.391,0.872c0.312,0.194,0.938,0.387,1.304,0.387c0.417,0,0.99-0.339,1.772-1.259h1.148l0.417,10.895
	l-1.514,0.145l-2.138-5.519c-1.043-2.712-1.877-4.359-3.808-4.359c-1.043,0-2.034,0.63-2.66,2.082
	c-1.095,2.566-1.669,7.457-1.669,15.156c0,7.7,0.782,12.591,2.086,15.157c0.626,1.21,1.931,1.791,2.973,1.791
	c2.453,0,6.052-2.179,5.79-9.442h1.253C159.031,46.696,157.31,49.214,154.702,50.667"/>
<path fill="#FFFFFF" d="M171.79,51.102v-1.258l0.678-0.098c1.043-0.145,1.46-0.582,1.46-2.131V33.525h-6.571v14.091
	c0,1.549,0.417,1.986,1.46,2.131l0.679,0.098v1.258h-10.328v-1.258l0.679-0.098c1.042-0.145,1.459-0.582,1.459-2.131V18.757
	c0-1.55-0.417-1.986-1.459-2.131l-0.679-0.097V15.27h10.328v1.259l-0.679,0.097c-1.043,0.145-1.46,0.581-1.46,2.131v12.832h6.571
	V18.757c0-1.55-0.417-1.986-1.46-2.131l-0.678-0.097V15.27h10.327v1.259l-0.678,0.097c-1.043,0.145-1.461,0.581-1.461,2.131v28.858
	c0,1.549,0.418,1.986,1.461,2.131l0.678,0.098v1.258H171.79z"/>
<path fill="#FFFFFF" d="M202.862,51.102h-19.819v-1.258l0.678-0.098c1.043-0.145,1.46-0.582,1.46-2.131V18.757
	c0-1.55-0.417-1.986-1.46-2.131l-0.678-0.097V15.27h19.819l0.262,9.927l-1.408,0.048c-1.461-4.987-3.129-8.716-8.555-8.716
	c-1.096,0-1.93,0.484-1.93,2.034v13.461h0.521c1.722,0,3.808-1.694,4.33-4.115l0.468-2.18h1.515v14.672h-1.515l-0.677-2.808
	c-0.626-2.663-2.295-4.31-4.121-4.31h-0.521v14.624c0,1.356,0.939,1.938,2.295,1.938c3.861,0,6.363-2.906,7.562-6.49l0.939-2.808
	l1.46,0.097L202.862,51.102z"/>
<path fill="#FFFFFF" d="M85.254,58.029H83.46v-4.416h1.708c0.643,0,1.179,0.138,1.629,0.622c0.397,0.43,0.59,0.993,0.59,1.576
	C87.388,57.082,86.553,58.029,85.254,58.029 M85.168,54.618h-0.351v2.391h0.351c0.597,0,0.802-0.707,0.802-1.19
	C85.97,55.321,85.785,54.618,85.168,54.618"/>
<path fill="#FFFFFF" d="M95.115,57.645c-0.377,0.357-0.881,0.45-1.384,0.45c-0.483,0-1.086-0.106-1.457-0.444
	c-0.311-0.285-0.39-0.635-0.39-1.04v-2.999h1.377v2.842c0,0.396,0.146,0.608,0.563,0.608s0.622-0.199,0.622-0.616v-0.244v-2.59
	h1.066v2.928C95.512,56.956,95.432,57.346,95.115,57.645"/>
<polygon fill="#FFFFFF" points="109.378,58.028 109.378,54.87 108.557,58.028 107.704,58.028 106.856,54.87 106.856,58.028 
	105.835,58.028 105.835,53.612 107.604,53.612 108.247,55.957 108.856,53.612 110.637,53.612 110.637,58.028 "/>
<rect x="115.378" y="53.612" fill="#FFFFFF" width="1.364" height="4.416"/>
<path fill="#FFFFFF" d="M123.279,58.029h-1.795v-4.416h1.709c0.642,0,1.178,0.138,1.628,0.622c0.398,0.43,0.59,0.993,0.59,1.576
	C125.411,57.082,124.576,58.029,123.279,58.029 M123.193,54.618h-0.352v2.391h0.352c0.596,0,0.8-0.707,0.8-1.19
	C123.993,55.321,123.808,54.618,123.193,54.618"/>
<rect x="129.954" y="53.612" fill="#FFFFFF" width="1.362" height="4.416"/>
</svg>
