<?xml version="1.0" encoding="utf-8"?>
<!-- Generator: Adobe Illustrator 16.0.0, SVG Export Plug-In . SVG Version: 6.00 Build 0)  -->
<!DOCTYPE svg PUBLIC "-//W3C//DTD SVG 1.1//EN" "http://www.w3.org/Graphics/SVG/1.1/DTD/svg11.dtd" [
	<!ENTITY ns_extend "http://ns.adobe.com/Extensibility/1.0/">
	<!ENTITY ns_ai "http://ns.adobe.com/AdobeIllustrator/10.0/">
	<!ENTITY ns_graphs "http://ns.adobe.com/Graphs/1.0/">
	<!ENTITY ns_vars "http://ns.adobe.com/Variables/1.0/">
	<!ENTITY ns_imrep "http://ns.adobe.com/ImageReplacement/1.0/">
	<!ENTITY ns_sfw "http://ns.adobe.com/SaveForWeb/1.0/">
	<!ENTITY ns_custom "http://ns.adobe.com/GenericCustomNamespace/1.0/">
	<!ENTITY ns_adobe_xpath "http://ns.adobe.com/XPath/1.0/">
]>
<svg version="1.1" id="Calque_1" xmlns:x="&ns_extend;" xmlns:i="&ns_ai;" xmlns:graph="&ns_graphs;"
	 xmlns="http://www.w3.org/2000/svg" xmlns:xlink="http://www.w3.org/1999/xlink" x="0px" y="0px" width="153px" height="51.729px"
	 viewBox="0 0 153 51.729" enable-background="new 0 0 153 51.729" xml:space="preserve">
<metadata>
	<sfw  xmlns="&ns_sfw;">
		<slices></slices>
		<sliceSourceBounds  width="153" height="51.729" y="-678.271" x="1133.026" bottomLeftOrigin="true"></sliceSourceBounds>
	</sfw>
</metadata>
<g>
	<path fill="#FFFFFF" d="M113.375,51.729c-2.732,0-5.546-0.222-8.376-0.665c-4.985-0.782-10.03-3.39-11.459-4.17l-3.744-2.048
		l4.054-1.333c4.433-1.457,7.129-2.361,10.465-3.777c-3.34-1.618-5.916-4.528-7.156-8.292l-0.943-2.862l0.773,0.117
		c-0.733-0.739-1.312-1.49-1.76-2.172c-1.598-2.426-2.443-5.389-2.264-7.928l0.178-2.499l1.496,0.579
		c-0.631-1.191-1.087-2.465-1.355-3.799c-0.653-3.254-0.106-6.711,1.54-9.734l1.304-2.393l1.743,2.094
		c5.514,6.623,12.496,10.552,20.784,11.701c-0.34-2.333-0.086-4.585,0.754-6.604c0.978-2.351,2.717-4.344,5.027-5.764
		c2.566-1.577,5.678-2.342,8.763-2.152c3.274,0.201,6.243,1.429,8.604,3.549c1.152-0.3,2.002-0.619,3.149-1.052
		c0.69-0.26,1.474-0.555,2.452-0.893l3.613-1.244l-2.356,6.726c0.155-0.014,0.315-0.024,0.483-0.031L153,6.908l-2.279,3.114
		c-0.13,0.179-0.162,0.229-0.21,0.299c-0.184,0.277-0.411,0.621-3.54,4.798c-0.783,1.047-1.175,2.408-1.102,3.838
		c0.277,5.427-0.389,10.337-1.98,14.595c-1.506,4.027-3.838,7.482-6.934,10.271c-3.829,3.448-8.713,5.81-14.516,7.018
		C119.596,51.432,116.538,51.729,113.375,51.729"/>
	<path fill="#FFFFFF" d="M44.151,0H7.577C3.399,0,0,3.399,0,7.577v36.574c0,4.178,3.399,7.577,7.577,7.577h15.257V33.441h-6.062
		v-9.093h6.062v-6.163c0-5.014,4.078-9.093,9.092-9.093h9.195v9.093h-9.195v6.163h9.195l-1.517,9.093h-7.679v18.287h12.226
		c4.179,0,7.577-3.399,7.577-7.577V7.577C51.729,3.399,48.33,0,44.151,0"/>
</g>
</svg>
