<?xml version="1.0" encoding="utf-8"?>
<!-- Generator: Adobe Illustrator 16.0.0, SVG Export Plug-In . SVG Version: 6.00 Build 0)  -->
<!DOCTYPE svg PUBLIC "-//W3C//DTD SVG 1.1//EN" "http://www.w3.org/Graphics/SVG/1.1/DTD/svg11.dtd" [
	<!ENTITY ns_extend "http://ns.adobe.com/Extensibility/1.0/">
	<!ENTITY ns_ai "http://ns.adobe.com/AdobeIllustrator/10.0/">
	<!ENTITY ns_graphs "http://ns.adobe.com/Graphs/1.0/">
	<!ENTITY ns_vars "http://ns.adobe.com/Variables/1.0/">
	<!ENTITY ns_imrep "http://ns.adobe.com/ImageReplacement/1.0/">
	<!ENTITY ns_sfw "http://ns.adobe.com/SaveForWeb/1.0/">
	<!ENTITY ns_custom "http://ns.adobe.com/GenericCustomNamespace/1.0/">
	<!ENTITY ns_adobe_xpath "http://ns.adobe.com/XPath/1.0/">
]>
<svg version="1.1" id="Calque_1" xmlns:x="&ns_extend;" xmlns:i="&ns_ai;" xmlns:graph="&ns_graphs;"
	 xmlns="http://www.w3.org/2000/svg" xmlns:xlink="http://www.w3.org/1999/xlink" x="0px" y="0px" width="255px" height="67.338px"
	 viewBox="0 0 255 67.338" enable-background="new 0 0 255 67.338" xml:space="preserve">
<metadata>
	<sfw  xmlns="&ns_sfw;">
		<slices></slices>
		<sliceSourceBounds  width="255" height="67.338" y="-580.593" x="935.275" bottomLeftOrigin="true"></sliceSourceBounds>
	</sfw>
</metadata>
<path fill="#F2C94C" d="M245.505,67.338H9.495C4.251,67.338,0,63.087,0,57.843V9.495C0,4.251,4.251,0,9.495,0h236.01
	C250.749,0,255,4.251,255,9.495v48.348C255,63.087,250.749,67.338,245.505,67.338"/>
<path fill="#FFFFFF" d="M34.021,43.674h-6.989l-2.19-20.01h6.09l0.75,8.19c0.03,0.45,0.06,1.29,0.06,2.22c0,0.84,0,1.38-0.06,2.7
	h0.21c0.78-2.91,0.87-3.21,1.53-4.8l3.72-8.311h6.449L34.021,43.674z"/>
<path fill="#FFFFFF" d="M59.611,24.925c2.19,1.59,3.3,4.109,3.3,7.38c0,6.72-4.89,11.879-11.28,11.879
	c-2.459,0-4.769-0.75-6.448-2.101c-1.95-1.559-3-3.989-3-6.959c0-3.33,1.319-6.569,3.569-8.76c2.25-2.16,4.89-3.21,8.07-3.21
	C56.012,23.154,58.052,23.784,59.611,24.925 M50.402,29.604c-1.261,1.561-2.04,3.72-2.04,5.79c0,2.188,1.35,3.72,3.239,3.72
	c2.761,0,5.19-3.48,5.19-7.44c0-2.22-1.26-3.72-3.15-3.72C52.412,27.954,51.302,28.524,50.402,29.604"/>
<polygon fill="#FFFFFF" points="74.222,23.664 69.993,43.674 63.723,43.674 67.982,23.664 "/>
<path fill="#FFFFFF" d="M80.191,43.674h-6.239l4.26-20.01h9.6c2.76,0,3.87,0.21,5.069,1.021c1.38,0.9,2.101,2.34,2.101,4.2
	c0,2.64-1.2,4.199-4.08,5.34c1.41,0.81,2.07,1.949,2.07,3.479c0,0.51,0,0.51-0.181,2.31c-0.06,0.48-0.12,1.681-0.12,2.04
	c0,0.78,0.061,1.23,0.271,1.62h-6.36c-0.149-0.54-0.18-0.75-0.18-1.26c0-0.391,0.03-0.69,0.12-1.5c0.12-0.99,0.18-1.53,0.18-1.86
	c0-1.529-0.81-2.189-2.76-2.189h-2.31L80.191,43.674z M85.021,32.305c1.229,0,1.89-0.12,2.49-0.45c0.72-0.391,1.2-1.17,1.2-1.92
	c0-1.2-0.841-1.8-2.431-1.8h-2.79l-0.899,4.17H85.021z"/>
<polygon fill="#FFFFFF" points="120.631,38.364 119.491,43.674 104.581,43.674 108.841,23.664 115.11,23.664 111.991,38.364 "/>
<path fill="#FFFFFF" d="M128.191,23.664l-1.08,5.07c-0.57,2.76-2.1,4.08-4.649,4.08c-0.09,0-0.33,0-0.601-0.03l0.391-1.77
	c1.5-0.271,2.22-1.11,2.55-2.94h-1.95l0.96-4.41H128.191z"/>
<path fill="#FFFFFF" d="M146.101,24.925c2.19,1.59,3.3,4.109,3.3,7.38c0,6.72-4.89,11.879-11.28,11.879
	c-2.459,0-4.769-0.75-6.448-2.101c-1.95-1.559-3-3.989-3-6.959c0-3.33,1.319-6.569,3.569-8.76c2.25-2.16,4.89-3.21,8.07-3.21
	C142.501,23.154,144.541,23.784,146.101,24.925 M136.892,29.604c-1.261,1.561-2.04,3.72-2.04,5.79c0,2.188,1.35,3.72,3.239,3.72
	c2.761,0,5.19-3.48,5.19-7.44c0-2.22-1.26-3.72-3.15-3.72C138.901,27.954,137.791,28.524,136.892,29.604"/>
<polygon fill="#FFFFFF" points="159.001,31.404 166.921,31.404 165.871,36.294 157.981,36.294 156.392,43.675 150.151,43.675 
	154.411,23.664 170.161,23.664 169.111,28.524 159.632,28.524 "/>
<polygon fill="#FFFFFF" points="177.631,31.404 185.551,31.404 184.501,36.294 176.609,36.294 175.021,43.675 168.78,43.675 
	173.041,23.664 188.79,23.664 187.739,28.524 178.261,28.524 "/>
<path fill="#FFFFFF" d="M193.65,43.674h-6.24l4.26-20.01h9.6c2.761,0,3.87,0.21,5.07,1.021c1.38,0.9,2.1,2.34,2.1,4.2
	c0,2.64-1.2,4.199-4.08,5.34c1.41,0.81,2.07,1.949,2.07,3.479c0,0.51,0,0.51-0.179,2.31c-0.062,0.48-0.121,1.681-0.121,2.04
	c0,0.78,0.06,1.23,0.27,1.62h-6.359c-0.15-0.54-0.18-0.75-0.18-1.26c0-0.391,0.029-0.69,0.12-1.5c0.119-0.99,0.18-1.53,0.18-1.86
	c0-1.529-0.811-2.189-2.76-2.189h-2.311L193.65,43.674z M198.48,32.305c1.229,0,1.89-0.12,2.489-0.45c0.721-0.391,1.2-1.17,1.2-1.92
	c0-1.2-0.84-1.8-2.43-1.8h-2.79l-0.9,4.17H198.48z"/>
<polygon fill="#FFFFFF" points="217.979,31.164 227.069,31.164 226.079,35.784 216.989,35.784 216.419,38.454 227.458,38.454 
	226.35,43.674 209.189,43.674 213.449,23.664 230.159,23.664 229.049,28.854 218.458,28.854 "/>
</svg>
